<?xml version="1.0" encoding="utf-8"?>
<!-- Generator: Adobe Illustrator 25.0.0, SVG Export Plug-In . SVG Version: 6.00 Build 0)  -->
<svg version="1.1" id="Слой_1" xmlns="http://www.w3.org/2000/svg" xmlns:xlink="http://www.w3.org/1999/xlink" x="0px" y="0px"
	 viewBox="0 0 595.3 137.9" style="enable-background:new 0 0 595.3 137.9;" xml:space="preserve">
<style type="text/css">
	.st0{fill:#4572A4;}
	.st1{fill:#FFFFFF;}
	.st2{fill:#4573A5;}
	.st3{enable-background:new    ;}
</style>
<g id="Слой_2_1_">
	<g>
		<rect x="28.3" y="12.2" class="st0" width="112.4" height="114.2"/>
	</g>
	<g>
		<g>
			<rect x="44.2" y="28.8" class="st1" width="16.9" height="81.1"/>
			<rect x="44.2" y="28.8" class="st1" width="80.7" height="12.6"/>
			<rect x="87.2" y="29.2" class="st1" width="16.9" height="80.8"/>
		</g>
		<g>
			<polygon class="st2" points="43.9,53.2 82.5,28.3 42.8,43.1 			"/>
			<polygon class="st2" points="61.2,25.2 62.2,25.2 62.2,47.3 61.2,47.3 61.2,25.2 			"/>
		</g>
	</g>
</g>
<g class="st3">
	<path class="st0" d="M164.1,45.8h32.1v12h-19.9v52.6h-12.2V45.8z"/>
	<path class="st0" d="M226.9,61.4c4.5,0,8.8,1.1,12.7,3.4c4,2.3,7.1,5.3,9.3,9.2c2.2,3.9,3.3,8,3.3,12.5c0,4.5-1.1,8.7-3.4,12.7
		s-5.3,7-9.2,9.2c-3.9,2.2-8.1,3.3-12.8,3.3c-6.9,0-12.7-2.4-17.6-7.3c-4.8-4.9-7.3-10.8-7.3-17.8c0-7.5,2.7-13.7,8.2-18.7
		C215.2,63.6,220.7,61.4,226.9,61.4z M227.1,72.7c-3.7,0-6.8,1.3-9.3,3.9c-2.5,2.6-3.7,5.9-3.7,10c0,4.2,1.2,7.5,3.7,10.1
		c2.4,2.6,5.6,3.9,9.3,3.9c3.8,0,6.9-1.3,9.4-3.9c2.5-2.6,3.7-6,3.7-10.1s-1.2-7.4-3.7-10C234.1,74,230.9,72.7,227.1,72.7z"/>
	<path class="st0" d="M262.1,110.4V62.6h19.2c6.3,0,10.6,1.2,12.8,3.7c2.3,2.5,3.4,5.3,3.4,8.4c0,4.7-2.3,8-6.9,10.1
		c6.3,2.2,9.5,6.3,9.5,12.3c0,3.3-0.8,5.9-2.5,8.1s-3.8,3.5-6.4,4.2c-2.6,0.7-6.1,1.1-10.7,1.1H262.1z M274.1,81.4h4.6
		c2,0,3.5-0.5,4.6-1.5c1.1-1,1.6-2.1,1.6-3.3c0-1.8-0.5-3.2-1.5-4.2c-1-1-2.3-1.5-3.7-1.5l-1.5,0h-4.1V81.4z M274.1,101.2h6
		c2.4,0,4-0.5,5-1.6c1-1.1,1.4-2.2,1.4-3.2c0-1.6-0.5-3-1.6-4.3s-3-1.9-5.8-1.9h-5V101.2z"/>
	<path class="st0" d="M318.2,90.2v-8.6h2.4c1.6,0,3-0.4,4.2-1.1s1.8-2,1.8-3.7c0-1.5-0.5-2.7-1.6-3.6s-2.4-1.4-3.9-1.4
		c-2,0-4.4,1-7.4,2.9l-4.7-8.3c4.1-3.3,8.7-4.9,13.8-4.9c4.7,0,8.5,1.2,11.6,3.6c3.1,2.4,4.6,5.7,4.6,9.8c0,4.2-2.2,7.5-6.7,10.1
		c5.9,2.2,8.9,6.2,8.9,11.9c0,4.3-1.7,7.8-5,10.6c-3.3,2.8-8,4.2-13.8,4.2c-6.5,0-11.8-1.8-16-5.4l6.6-8.3c2.8,2.1,5.5,3.2,8.1,3.2
		c2.1,0,3.7-0.5,4.9-1.5c1.2-1,1.8-2.2,1.8-3.8c0-1.5-0.6-2.8-1.7-3.9c-1.1-1.1-2.7-1.7-4.6-1.7H318.2z"/>
	<path class="st0" d="M386,62.6h12v47.8h-12v-5.1c-2.3,2.2-4.7,3.8-7,4.8c-2.4,1-4.9,1.5-7.7,1.5c-6.2,0-11.5-2.4-16-7.2
		c-4.5-4.8-6.8-10.7-6.8-17.9c0-7.4,2.2-13.4,6.5-18.1c4.4-4.7,9.7-7.1,15.9-7.1c2.9,0,5.6,0.5,8.1,1.6s4.8,2.7,7,4.9V62.6z
		 M373.4,72.5c-3.7,0-6.8,1.3-9.2,3.9c-2.5,2.6-3.7,6-3.7,10.1c0,4.1,1.2,7.5,3.7,10.2c2.5,2.7,5.6,4,9.2,4c3.8,0,6.9-1.3,9.4-3.9
		c2.5-2.6,3.7-6.1,3.7-10.3c0-4.2-1.2-7.5-3.7-10.1S377.2,72.5,373.4,72.5z"/>
	<path class="st0" d="M452.9,110.4h-12.2l-12-30.2l-12.2,30.2h-12.2l20.4-47.8h7.7L452.9,110.4z"/>
	<path class="st0" d="M501.9,110.4h-12.2l-12-30.2l-12.2,30.2h-12.2l20.4-47.8h7.7L501.9,110.4z"/>
	<path class="st0" d="M543.5,62.6h12v47.8h-12v-5.1c-2.3,2.2-4.7,3.8-7,4.8c-2.4,1-4.9,1.5-7.7,1.5c-6.2,0-11.5-2.4-16-7.2
		c-4.5-4.8-6.8-10.7-6.8-17.9c0-7.4,2.2-13.4,6.5-18.1c4.4-4.7,9.7-7.1,15.9-7.1c2.9,0,5.6,0.5,8.1,1.6s4.8,2.7,7,4.9V62.6z
		 M530.9,72.5c-3.7,0-6.8,1.3-9.2,3.9c-2.5,2.6-3.7,6-3.7,10.1c0,4.1,1.2,7.5,3.7,10.2c2.5,2.7,5.6,4,9.2,4c3.8,0,6.9-1.3,9.4-3.9
		c2.5-2.6,3.7-6.1,3.7-10.3c0-4.2-1.2-7.5-3.7-10.1S534.7,72.5,530.9,72.5z"/>
</g>
<g id="Слой_2__x28_копия_x29_">
</g>
</svg>
